<svg width="32" height="33" fill="none" xmlns="http://www.w3.org/2000/svg"><path d="M13.189 6.94c.418 0 .83.019 1.238.054.465-.062.935-.094 1.405-.095h1.422a2.954 2.954 0 100-5.901h-1.423a15.587 15.587 0 00-11.15 4.729A16.142 16.142 0 000 17.14c.002.58.034 1.158.096 1.734A13.153 13.153 0 0113.189 6.94zm18.809 9.913v-1.375a2.99 2.99 0 10-5.979 0v1.865c.19.902.286 1.822.287 2.744a13.152 13.152 0 01-10.57 12.908h.095a16.174 16.174 0 0011.611-4.83 15.696 15.696 0 004.556-11.312z" fill="#5E6AD2"/><path d="M26.342 20.087a13.395 13.395 0 00-.287-2.744 9.756 9.756 0 01-2.816 6.618 10.424 10.424 0 01-7.408 3.091 9.827 9.827 0 01-9.93-9.912 10.313 10.313 0 012.9-7.306 9.703 9.703 0 015.626-2.858 13.81 13.81 0 00-1.238-.053A13.153 13.153 0 00.096 18.856a15.837 15.837 0 004.591 9.464 15.688 15.688 0 0011.049 4.675 13.153 13.153 0 0010.606-12.908z" fill="#FFCB4A"/></svg>