<svg width="720" height="720" fill="none" xmlns="http://www.w3.org/2000/svg"><path fill="#D6BBFB" d="M540 0h180v180H540z"/><path d="M540 90h90c0 49.706-40.294 90-90 90V90z" fill="#fff"/><path d="M630 0c49.706 0 90 40.294 90 90h-90V0z" fill="#6941C6"/><path fill="#E9D7FE" d="M540 180h180v180H540z"/><path d="M630 270h90c0 49.706-40.294 90-90 90v-90z" fill="#9E77ED"/><path d="M630 270c-49.706 0-90 40.294-90 90h90v-90z" fill="#6941C6"/><path fill="#fff" d="M180 180h180v180H180z"/><path d="M360 270h-90c0 49.706 40.294 90 90 90v-90z" fill="#9E77ED"/><path d="M270 180c49.706 0 90 40.294 90 90h-90v-90z" fill="#6941C6"/><path fill="#fff" d="M360 0h180v180H360z"/><path d="M450 90h90l-90 90V90zm0-90v90h-90l90-90z" fill="#9E77ED"/><path fill="#E9D7FE" d="M360 360h180v180H360z"/><path d="M450 450v-90l90 90h-90z" fill="#fff"/><path d="M360 450h90v90l-90-90z" fill="#9E77ED"/><path fill="#D6BBFB" d="M360 180h180v180H360z"/><path d="M450 360c-49.706 0-90-40.294-90-90s40.294-90 90-90v180z" fill="#6941C6"/><circle cx="450" cy="270" r="45" fill="#fff"/><path fill="#E9D7FE" d="M0 540h180v180H0z"/><path d="M0 630c0-49.706 40.294-90 90-90s90 40.294 90 90H0z" fill="#9E77ED"/><circle cx="90" cy="675" fill="#fff" r="45"/><path fill="#fff" d="M180 540h180v180H180z"/><path d="M180 630c0-49.706 40.294-90 90-90s90 40.294 90 90H180z" fill="#9E77ED"/><path d="M270 720c-49.706 0-90-40.294-90-90s40.294-90 90-90v180z" fill="#6941C6"/><circle cx="315" cy="675" fill="#D6BBFB" r="45"/><path fill="#fff" d="M0 360h180v180H0z"/><path d="M180 540c-49.706 0-90-40.294-90-90s40.294-90 90-90v180z" fill="#6941C6"/><circle cx="45" cy="450" r="45" fill="#D6BBFB"/><path fill="#D6BBFB" d="M180 360h180v180H180z"/><path d="M180 540c49.706 0 90-40.294 90-90s-40.294-90-90-90v180z" fill="#6941C6"/><path d="M360 360v180l-90-90 90-90zM0 0h180v180H0z" fill="#fff"/><path fill="#9E77ED" d="M90 90h90v90H90z"/><path fill="#E9D7FE" d="M0 0h90v90H0zm360 540h180v180H360z"/><path fill="#6941C6" d="M360 540h90v90h-90z"/><path fill="#fff" d="M450 630h90v90h-90z"/><path fill="#E9D7FE" d="M0 180h180v180H0z"/><circle cx="90" cy="270" r="45" fill="#fff"/><path d="M180 360H0l90-90 90 90z" fill="#6941C6"/><path fill="#fff" d="M540 540h180v180H540z"/><circle cx="630" cy="630" r="45" fill="#F4EBFF"/><path d="M720 720H540l90-90 90 90z" fill="#6941C6"/><path d="M720 630H540l90-90 90 90z" fill="#9E77ED"/><path fill="#D6BBFB" d="M180 0h180v180H180z"/><path d="M360 0v180H180L360 0z" fill="#6941C6"/><circle cx="270" cy="90" r="45" fill="#fff"/><path fill="#fff" d="M540 360h180v180H540z"/><path d="M540 360h180v180L540 360z" fill="#9E77ED"/><circle cx="630" cy="450" r="45" fill="#6941C6"/></svg>