<svg width="145" height="39" fill="none" xmlns="http://www.w3.org/2000/svg"><g filter="url(#filter0_dd_317_18811)"><path d="M16.189 8.94c.418 0 .83.019 1.238.054a10.81 10.81 0 011.404-.095h1.423a2.954 2.954 0 100-5.901h-1.423a15.587 15.587 0 00-11.15 4.729A16.142 16.142 0 003 19.14c.002.58.034 1.158.096 1.734A13.153 13.153 0 0116.189 8.94zm18.809 9.913v-1.375a2.99 2.99 0 10-5.979 0v1.865c.19.902.286 1.822.287 2.744a13.152 13.152 0 01-10.57 12.908h.095a16.174 16.174 0 0011.611-4.83 15.696 15.696 0 004.556-11.312z" fill="#5E6AD2"/><path d="M29.342 22.087a13.395 13.395 0 00-.287-2.744 9.756 9.756 0 01-2.816 6.618 10.424 10.424 0 01-7.408 3.091 9.827 9.827 0 01-9.93-9.912 10.313 10.313 0 012.9-7.306 9.703 9.703 0 015.626-2.858 13.81 13.81 0 00-1.238-.053A13.153 13.153 0 003.096 20.856a15.837 15.837 0 004.591 9.464 15.689 15.689 0 0011.049 4.675 13.153 13.153 0 0010.606-12.908z" fill="#FFCB4A"/></g><path d="M58.65 27.105H57a.372.372 0 00-.254.1.296.296 0 00-.101.242 4.846 4.846 0 01-.389 2.008 5.111 5.111 0 01-1.193 1.707 5.877 5.877 0 01-1.898 1.202 6.178 6.178 0 01-2.245.424 5.84 5.84 0 01-2.144-.382 5.558 5.558 0 01-1.819-1.133 5.165 5.165 0 01-1.207-1.705 4.895 4.895 0 01-.408-2.011c-.02-.698.11-1.394.381-2.044a5.221 5.221 0 011.2-1.745 5.62 5.62 0 011.828-1.17 5.898 5.898 0 012.169-.41.368.368 0 00.25-.098.323.323 0 00.105-.235v-1.522a.323.323 0 00-.104-.235.368.368 0 00-.251-.098 8.23 8.23 0 00-3.029.578 7.822 7.822 0 00-2.55 1.638C43.84 23.637 42.997 25.56 43 27.562c.016 1.965.854 3.845 2.333 5.236 1.48 1.391 3.483 2.182 5.578 2.202a8.542 8.542 0 003.15-.581 8.12 8.12 0 002.661-1.688 7.322 7.322 0 001.71-2.433c.391-.91.584-1.884.567-2.865a.328.328 0 00-.105-.229.371.371 0 00-.245-.099zM86.49 20A7.505 7.505 0 0079 27.51v7.157a.332.332 0 00.332.333h1.525a.332.332 0 00.333-.333V27.51a5.32 5.32 0 015.3-5.196 5.225 5.225 0 015.197 5.197v7.157a.333.333 0 00.332.333h1.648a.332.332 0 00.333-.333V27.51A7.519 7.519 0 0086.49 20zm36.167.002a7.502 7.502 0 00-7.039 4.517 7.498 7.498 0 005.354 10.324 7.5 7.5 0 101.685-14.841zm5.148 7.51a5.239 5.239 0 01-10.434 0 5.315 5.315 0 015.286-5.334 5.24 5.24 0 015.148 5.333zm17.06-6.125a7.524 7.524 0 00-10.777 2.222A7.48 7.48 0 00133 27.516v7.15a.332.332 0 00.335.334h1.514a.336.336 0 00.335-.334v-7.15a5.35 5.35 0 011.591-3.746 5.326 5.326 0 013.718-1.592c1.039 0 2.051.325 2.895.93a.336.336 0 00.44-.048l1.085-1.173a.342.342 0 00.069-.122.35.35 0 00.017-.14.346.346 0 00-.134-.238zM68.018 20c-2.127 0-4.166.79-5.67 2.197C60.845 23.603 60 25.51 60 27.5c0 1.99.845 3.897 2.348 5.303C63.852 34.21 65.891 35 68.018 35h.076a8.028 8.028 0 004.647-1.474.324.324 0 00.125-.358.33.33 0 00-.064-.118l-1.093-1.25a.376.376 0 00-.483-.067 5.886 5.886 0 01-2.82.907 5.957 5.957 0 01-2.919-.568 5.508 5.508 0 01-2.2-1.883 5.024 5.024 0 01-.862-2.67c-.004-1.397.58-2.74 1.627-3.737 1.047-.997 2.472-1.568 3.966-1.59h.284c1.428.11 2.758.72 3.726 1.707.968.988 1.502 2.28 1.496 3.62v7.134c.001.088.04.172.106.234a.374.374 0 00.25.099h1.764a.369.369 0 00.252-.098.322.322 0 00.104-.235v-7.134c.004-1.986-.834-3.893-2.33-5.302-1.496-1.41-3.529-2.207-5.652-2.217zm44.627-5h-1.786a.37.37 0 00-.251.097.32.32 0 00-.104.233v12.244c-.002 1.318-.536 2.588-1.497 3.559-.96.97-2.278 1.573-3.692 1.687h-.279c-1.489-.016-2.911-.576-3.959-1.558-1.048-.981-1.638-2.306-1.642-3.688a4.953 4.953 0 01.858-2.646 5.492 5.492 0 012.193-1.869 5.99 5.99 0 012.914-.566 5.91 5.91 0 012.816.894.373.373 0 00.253.055.355.355 0 00.224-.12l1.081-1.244a.32.32 0 00.031-.372.358.358 0 00-.092-.099 8.052 8.052 0 00-4.637-1.46H105a8.45 8.45 0 00-4.445 1.252c-1.315.816-2.34 1.976-2.946 3.333a6.933 6.933 0 00-.455 4.29c.308 1.441 1.07 2.764 2.19 3.803a8.208 8.208 0 004.095 2.032 8.573 8.573 0 004.622-.422c1.462-.562 2.712-1.514 3.591-2.736A7.054 7.054 0 00113 27.575V15.33a.316.316 0 00-.104-.233.37.37 0 00-.251-.097z" fill="#5E6AD2"/><defs><filter id="filter0_dd_317_18811" x="0" y=".995" width="38" height="38.005" filterUnits="userSpaceOnUse" color-interpolation-filters="sRGB"><feFlood flood-opacity="0" result="BackgroundImageFix"/><feColorMatrix in="SourceAlpha" values="0 0 0 0 0 0 0 0 0 0 0 0 0 0 0 0 0 0 127 0" result="hardAlpha"/><feOffset dy="1"/><feGaussianBlur stdDeviation="1"/><feColorMatrix values="0 0 0 0 0.0627451 0 0 0 0 0.0941176 0 0 0 0 0.156863 0 0 0 0.06 0"/><feBlend in2="BackgroundImageFix" result="effect1_dropShadow_317_18811"/><feColorMatrix in="SourceAlpha" values="0 0 0 0 0 0 0 0 0 0 0 0 0 0 0 0 0 0 127 0" result="hardAlpha"/><feOffset dy="1"/><feGaussianBlur stdDeviation="1.5"/><feColorMatrix values="0 0 0 0 0.0627451 0 0 0 0 0.0941176 0 0 0 0 0.156863 0 0 0 0.1 0"/><feBlend in2="effect1_dropShadow_317_18811" result="effect2_dropShadow_317_18811"/><feBlend in="SourceGraphic" in2="effect2_dropShadow_317_18811" result="shape"/></filter></defs></svg>